<?xml version="1.0" encoding="UTF-8" standalone="no"?>
<!-- Created with Inkscape (http://www.inkscape.org/) -->

<svg
   xmlns:dc="http://purl.org/dc/elements/1.1/"
   xmlns:cc="http://creativecommons.org/ns#"
   xmlns:rdf="http://www.w3.org/1999/02/22-rdf-syntax-ns#"
   xmlns:svg="http://www.w3.org/2000/svg"
   xmlns="http://www.w3.org/2000/svg"
   xmlns:sodipodi="http://sodipodi.sourceforge.net/DTD/sodipodi-0.dtd"
   xmlns:inkscape="http://www.inkscape.org/namespaces/inkscape"
   width="210mm"
   height="297mm"
   viewBox="0 0 210 297"
   version="1.1"
   id="svg8"
   sodipodi:docname="Background.svg"
   inkscape:version="0.92.3 (2405546, 2018-03-11)">
  <defs
     id="defs2">
    <filter
       inkscape:collect="always"
       style="color-interpolation-filters:sRGB"
       id="filter2069"
       x="-0.48492303"
       width="1.9698461"
       y="-0.48492303"
       height="1.9698461">
      <feGaussianBlur
         inkscape:collect="always"
         stdDeviation="1.2791105"
         id="feGaussianBlur2071" />
    </filter>
    <filter
       inkscape:collect="always"
       style="color-interpolation-filters:sRGB"
       id="filter2073"
       x="-2.4834655"
       width="5.966931"
       y="-2.3561082"
       height="5.7122165">
      <feGaussianBlur
         inkscape:collect="always"
         stdDeviation="1.2791105"
         id="feGaussianBlur2075" />
    </filter>
    <filter
       inkscape:collect="always"
       style="color-interpolation-filters:sRGB"
       id="filter2077"
       x="-0.20304621"
       width="1.4060924"
       y="-0.20304621"
       height="1.4060924">
      <feGaussianBlur
         inkscape:collect="always"
         stdDeviation="1.2791105"
         id="feGaussianBlur2079" />
    </filter>
    <filter
       inkscape:collect="always"
       style="color-interpolation-filters:sRGB"
       id="filter2081"
       x="-0.145033"
       width="1.290066"
       y="-0.145033"
       height="1.290066">
      <feGaussianBlur
         inkscape:collect="always"
         stdDeviation="1.2791105"
         id="feGaussianBlur2083" />
    </filter>
    <filter
       inkscape:collect="always"
       style="color-interpolation-filters:sRGB"
       id="filter2085"
       x="-0.2256069"
       width="1.4512138"
       y="-0.2256069"
       height="1.4512138">
      <feGaussianBlur
         inkscape:collect="always"
         stdDeviation="1.2791105"
         id="feGaussianBlur2087" />
    </filter>
    <filter
       inkscape:collect="always"
       style="color-interpolation-filters:sRGB"
       id="filter2089"
       x="-1.015231"
       width="3.0304619"
       y="-1.015231"
       height="3.0304619">
      <feGaussianBlur
         inkscape:collect="always"
         stdDeviation="1.2791105"
         id="feGaussianBlur2091" />
    </filter>
    <filter
       inkscape:collect="always"
       style="color-interpolation-filters:sRGB"
       id="filter2093"
       x="-0.6381127"
       width="2.2762254"
       y="-0.6381127"
       height="2.2762254">
      <feGaussianBlur
         inkscape:collect="always"
         stdDeviation="1.2791105"
         id="feGaussianBlur2095" />
    </filter>
    <filter
       inkscape:collect="always"
       style="color-interpolation-filters:sRGB"
       id="filter2097"
       x="-0.35893837"
       width="1.7178767"
       y="-0.35893837"
       height="1.7178767">
      <feGaussianBlur
         inkscape:collect="always"
         stdDeviation="1.2791105"
         id="feGaussianBlur2099" />
    </filter>
  </defs>
  <sodipodi:namedview
     id="base"
     pagecolor="#ffffff"
     bordercolor="#666666"
     borderopacity="1.0"
     inkscape:pageopacity="0.0"
     inkscape:pageshadow="2"
     inkscape:zoom="0.35"
     inkscape:cx="247.38409"
     inkscape:cy="227.29105"
     inkscape:document-units="mm"
     inkscape:current-layer="layer1"
     showgrid="false"
     showborder="true"
     inkscape:pagecheckerboard="true"
     inkscape:window-width="1920"
     inkscape:window-height="1027"
     inkscape:window-x="-8"
     inkscape:window-y="-8"
     inkscape:window-maximized="1" />
  <metadata
     id="metadata5">
    <rdf:RDF>
      <cc:Work
         rdf:about="">
        <dc:format>image/svg+xml</dc:format>
        <dc:type
           rdf:resource="http://purl.org/dc/dcmitype/StillImage" />
        <dc:title />
      </cc:Work>
    </rdf:RDF>
  </metadata>
  <g
     inkscape:label="Layer 1"
     inkscape:groupmode="layer"
     id="layer1">
    <path
       style="opacity:0.68999999;fill:#f62727;fill-opacity:0.9951691;stroke:none;stroke-width:0.6767512;stroke-linecap:round;stroke-linejoin:round;stroke-miterlimit:4;stroke-dasharray:none;stroke-opacity:1;filter:url(#filter2069)"
       id="path818"
       sodipodi:type="arc"
       sodipodi:cx="33.099499"
       sodipodi:cy="62.913818"
       sodipodi:rx="3.1653118"
       sodipodi:ry="3.1653118"
       sodipodi:start="0"
       sodipodi:end="6.2705891"
       d="m 36.264811,62.913818 a 3.1653118,3.1653118 0 0 1 -3.155345,3.165296 3.1653118,3.1653118 0 0 1 -3.175216,-3.14536 3.1653118,3.1653118 0 0 1 3.135346,-3.185106 3.1653118,3.1653118 0 0 1 3.194963,3.1253"
       sodipodi:open="true" />
    <path
       style="opacity:0.68999999;fill:#f62727;fill-opacity:0.9951691;stroke:none;stroke-width:1;stroke-linecap:round;stroke-linejoin:round;stroke-miterlimit:4;stroke-dasharray:none;stroke-opacity:1;filter:url(#filter2073)"
       id="path822"
       sodipodi:type="arc"
       sodipodi:cx="166.32516"
       sodipodi:cy="21.946245"
       sodipodi:rx="0.61806077"
       sodipodi:ry="0.65146947"
       sodipodi:start="0"
       sodipodi:end="6.270584"
       sodipodi:open="true"
       d="m 166.94323,21.946245 a 0.61806077,0.65146947 0 0 1 -0.61612,0.651466 0.61806077,0.65146947 0 0 1 -0.61999,-0.647361 0.61806077,0.65146947 0 0 1 0.6122,-0.655545 0.61806077,0.65146947 0 0 1 0.62386,0.643231" />
    <path
       style="opacity:0.68999999;fill:#f62727;fill-opacity:0.9951691;stroke:none;stroke-width:1;stroke-linecap:round;stroke-linejoin:round;stroke-miterlimit:4;stroke-dasharray:none;stroke-opacity:1;filter:url(#filter2077)"
       id="path824"
       sodipodi:type="arc"
       sodipodi:cx="72.571426"
       sodipodi:cy="181.33928"
       sodipodi:rx="7.5595236"
       sodipodi:ry="7.5595236"
       sodipodi:start="0"
       sodipodi:end="6.270584"
       sodipodi:open="true"
       d="m 80.13095,181.33928 a 7.5595236,7.5595236 0 0 1 -7.535709,7.55949 7.5595236,7.5595236 0 0 1 -7.583188,-7.51186 7.5595236,7.5595236 0 0 1 7.48793,-7.60682 7.5595236,7.5595236 0 0 1 7.630367,7.46393" />
    <path
       style="opacity:0.68999999;fill:#f62727;fill-opacity:0.9951691;stroke:none;stroke-width:1;stroke-linecap:round;stroke-linejoin:round;stroke-miterlimit:4;stroke-dasharray:none;stroke-opacity:1;filter:url(#filter2081)"
       id="path826"
       sodipodi:type="arc"
       sodipodi:cx="158.75"
       sodipodi:cy="121.61904"
       sodipodi:rx="10.583333"
       sodipodi:ry="10.583333"
       sodipodi:start="0"
       sodipodi:end="6.270584"
       sodipodi:open="true"
       d="m 169.33333,121.61904 a 10.583333,10.583333 0 0 1 -10.54999,10.58328 10.583333,10.583333 0 0 1 -10.61646,-10.5166 10.583333,10.583333 0 0 1 10.4831,-10.64954 10.583333,10.583333 0 0 1 10.68251,10.4495" />
    <path
       style="opacity:0.68999999;fill:#f62727;fill-opacity:0.9951691;stroke:none;stroke-width:1;stroke-linecap:round;stroke-linejoin:round;stroke-miterlimit:4;stroke-dasharray:none;stroke-opacity:1;filter:url(#filter2085)"
       id="path828"
       sodipodi:type="arc"
       sodipodi:cx="159.50595"
       sodipodi:cy="232.74405"
       sodipodi:rx="6.8035712"
       sodipodi:ry="6.8035712"
       sodipodi:start="0"
       sodipodi:end="6.270584"
       sodipodi:open="true"
       d="m 166.30952,232.74405 a 6.8035712,6.8035712 0 0 1 -6.78214,6.80354 6.8035712,6.8035712 0 0 1 -6.82487,-6.76067 6.8035712,6.8035712 0 0 1 6.73914,-6.84614 6.8035712,6.8035712 0 0 1 6.86733,6.71754" />
    <path
       style="opacity:0.68999999;fill:#f62727;fill-opacity:0.9951691;stroke:none;stroke-width:1;stroke-linecap:round;stroke-linejoin:round;stroke-miterlimit:4;stroke-dasharray:none;stroke-opacity:1;filter:url(#filter2089)"
       id="path830"
       sodipodi:type="arc"
       sodipodi:cx="119.44047"
       sodipodi:cy="190.41071"
       sodipodi:rx="1.5119048"
       sodipodi:ry="1.5119048"
       sodipodi:start="0"
       sodipodi:end="6.270584"
       sodipodi:open="true"
       d="m 120.95237,190.41071 a 1.5119048,1.5119048 0 0 1 -1.50714,1.51189 1.5119048,1.5119048 0 0 1 -1.51664,-1.50237 1.5119048,1.5119048 0 0 1 1.49759,-1.52136 1.5119048,1.5119048 0 0 1 1.52607,1.49278" />
    <path
       style="opacity:0.68999999;fill:#f62727;fill-opacity:0.9951691;stroke:none;stroke-width:1;stroke-linecap:round;stroke-linejoin:round;stroke-miterlimit:4;stroke-dasharray:none;stroke-opacity:1;filter:url(#filter2093)"
       id="path832"
       sodipodi:type="arc"
       sodipodi:cx="25.657875"
       sodipodi:cy="263.05676"
       sodipodi:rx="2.4054255"
       sodipodi:ry="2.4054255"
       sodipodi:start="0"
       sodipodi:end="6.270584"
       sodipodi:open="true"
       d="m 28.063301,263.05676 a 2.4054255,2.4054255 0 0 1 -2.397848,2.40542 2.4054255,2.4054255 0 0 1 -2.412956,-2.39026 2.4054255,2.4054255 0 0 1 2.382645,-2.42048 2.4054255,2.4054255 0 0 1 2.427968,2.37501" />
    <path
       style="opacity:0.68999999;fill:#f62727;fill-opacity:0.9951691;stroke:none;stroke-width:1;stroke-linecap:round;stroke-linejoin:round;stroke-miterlimit:4;stroke-dasharray:none;stroke-opacity:1;filter:url(#filter2097)"
       id="path834"
       sodipodi:type="arc"
       sodipodi:cx="127.22029"
       sodipodi:cy="22.246925"
       sodipodi:rx="4.2763124"
       sodipodi:ry="4.2763124"
       sodipodi:start="0"
       sodipodi:end="6.270584"
       sodipodi:open="true"
       d="m 131.4966,22.246925 a 4.2763124,4.2763124 0 0 1 -4.26284,4.276291 4.2763124,4.2763124 0 0 1 -4.2897,-4.249347 4.2763124,4.2763124 0 0 1 4.23582,-4.303065 4.2763124,4.2763124 0 0 1 4.31638,4.222236" />
  </g>
</svg>
