<svg id="svg8" width="19.827mm" height="32.323mm" version="1.1" viewBox="0 0 19.827 32.323" xmlns="http://www.w3.org/2000/svg">
 <g id="layer1" transform="translate(-109.78 -84.185)">
  <g id="g837" transform="matrix(.35334 0 0 .35334 77.401 64.89)">
   <ellipse id="path815" cx="119.82" cy="98.82" rx="19.296" ry="18.762" style="fill:none;stroke-linecap:round;stroke-linejoin:round;stroke-width:8.0921;stroke:#ff3061"/>
   <path id="path817" d="m129.73 120.6a9.9122 21.916 0 0 1-9.8132 21.915 9.9122 21.916 0 0 1-10.009-21.477l9.9103-0.43794z" style="fill:none;stroke-linecap:round;stroke-linejoin:round;stroke-width:7.1356;stroke:#ff3061"/>
   <path id="path821" transform="rotate(32.39)" d="m155.68-21.95a0.13363 10.691 0 0 1-0.0613 8.9903" style="fill:none;stroke-linecap:round;stroke-linejoin:round;stroke-width:9;stroke:#ff3061"/>
   <path id="path826" transform="matrix(-.84442 .53568 .53568 .84442 0 0)" d="m-46.748 105.84a0.13363 10.691 0 0 1-0.06132 8.9903" style="fill:none;stroke-linecap:round;stroke-linejoin:round;stroke-width:9;stroke:#ff3061"/>
   <path id="path828" transform="rotate(.17805)" d="m120.05 58.798a0.13363 10.691 0 0 1-0.0613 8.9903" style="fill:none;stroke-linecap:round;stroke-linejoin:round;stroke-width:9;stroke:#ff3061"/>
  </g>
 </g>
</svg>
