<?xml version="1.0" encoding="UTF-8"?>
<svg id="svg8" width="18.569mm" height="18.567mm" version="1.1" viewBox="0 0 18.569 18.567" xmlns="http://www.w3.org/2000/svg">
 <g id="layer1" transform="translate(-75.949 -92.824)">
  <path id="path817" d="m93.785 102.11a8.5517 8.5517 0 0 1-8.4896 8.5515 8.5517 8.5517 0 0 1-8.6129-8.4273 8.5517 8.5517 0 0 1 8.3646-8.6739" style="fill:none;opacity:.905;stroke-linecap:round;stroke-linejoin:round;stroke-opacity:.91304;stroke-width:1.465;stroke:#755757"/>
  <path id="path819" transform="matrix(-.095521 .99543 .99543 .095521 0 0)" d="m100 94.597a6.5063 6.5063 0 0 1-6.4591 6.5061 6.5063 6.5063 0 0 1-6.5529-6.4117 6.5063 6.5063 0 0 1 6.3639-6.5992" style="fill:none;opacity:.905;stroke-linecap:round;stroke-linejoin:round;stroke-opacity:.91304;stroke-width:1.1146;stroke:#755757"/>
  <path id="path821" transform="matrix(-.16537 -.98623 -.98623 .16537 0 0)" d="m-110.91-67.209a3.8871 3.8871 0 0 1-3.8589 3.887 3.8871 3.8871 0 0 1-3.9149-3.8305 3.8871 3.8871 0 0 1 3.802-3.9426" style="fill:none;opacity:.905;stroke-linecap:round;stroke-linejoin:round;stroke-opacity:.91304;stroke-width:.6659;stroke:#755757"/>
  <path id="path823" transform="matrix(-.16537 -.98623 -.98623 .16537 0 0)" d="m-113.73-67.206a1.0845 1.0845 0 0 1-1.0766 1.0844 1.0845 1.0845 0 0 1-1.0922-1.0687 1.0845 1.0845 0 0 1 1.0607-1.1" style="fill:none;opacity:.905;stroke-linecap:round;stroke-linejoin:round;stroke-opacity:.91304;stroke-width:.18578;stroke:#755757"/>
 </g>
</svg>
