<svg id="svg8" width="27.899mm" height="47.155mm" version="1.1" viewBox="0 0 27.899 47.155" xmlns="http://www.w3.org/2000/svg">
 <g id="layer1" transform="translate(-73.741 -112.4)">
  <rect id="rect819" x="75.174" y="113.84" width="25.033" height="44.289" rx="4.9954" ry="5.0467" style="fill:none;opacity:.796;stroke-linecap:round;stroke-linejoin:round;stroke-width:2.8657;stroke:#626262"/>
  <path id="rect821" d="m81.358 119.25c-0.0018 0.2189 0.06714 0.47359 0.19992 0.68581l5.5774 8.9144c0.21915 0.35028 0.52538 0.44781 0.68664 0.21867l6.106-8.6762c0.16126-0.22914 0.11467-0.69555-0.10449-1.0458l-0.03883-0.062c-0.35604 0.0465-0.73966 0.0731-1.1424 0.0731h-9.903c-0.49457 0-0.96118-0.0393-1.3812-0.10794z" style="fill:none;opacity:.796;stroke-linecap:round;stroke-linejoin:round;stroke-width:2.5002;stroke:#626262"/>
  <path id="path828" d="m81.358 119.25c-0.0018 0.2189 0.06714 0.47359 0.19992 0.68581l5.5774 8.9144c0.21915 0.35028 0.52538 0.44781 0.68664 0.21867l6.106-8.6762c0.16126-0.22914 0.11467-0.69555-0.10449-1.0458l-0.03883-0.062c-0.35604 0.0465-0.73966 0.0731-1.1424 0.0731h-9.903c-0.49457 0-0.96118-0.0393-1.3812-0.10794z" style="fill:none;opacity:.796;stroke-linecap:round;stroke-linejoin:round;stroke-width:2.5002;stroke:#626262"/>
 </g>
</svg>
