<svg id="svg8" width="102.73mm" height="102.73mm" version="1.1" viewBox="0 0 102.73 102.73" xmlns="http://www.w3.org/2000/svg">
 <g id="layer1" transform="translate(-116.03 -12.056)">
  <g id="g1024">
   <path id="path1002" transform="scale(-1)" d="m-164.01-16.914a46.63 46.63 0 0 1-49.209-37.939 46.63 46.63 0 0 1 32.179-53.154 46.63 46.63 0 0 1 56.429 26.013 46.63 46.63 0 0 1-19.519 58.991" style="fill:none;stroke-linecap:round;stroke-linejoin:round;stroke-width:9;stroke:#f9f973"/>
   <path id="path815" d="m163.99 16.68a46.869 46.869 0 0 1 48.348 33.5 46.869 46.869 0 0 1-22.461 54.363 46.869 46.869 0 0 1-57.894-10.395 46.869 46.869 0 0 1-2.1448-58.781" style="fill:none;stroke-linecap:round;stroke-linejoin:round;stroke-width:9;stroke:#ff3061"/>
   <text id="text1018" x="128.77773" y="68.432365" style="fill:#000000;font-family:sans-serif;font-size:19.756px;letter-spacing:0px;line-height:1.25;stroke-width:.26458;word-spacing:0px" xml:space="preserve"><tspan id="tspan1016" x="128.77773" y="68.432365" style="fill:#414144;font-family:'Yu Gothic';font-size:16.933px;stroke-width:.26458">Bootstrap</tspan></text>
   <text id="text1032" x="159.51558" y="67.13736" style="fill:#000000;font-family:sans-serif;font-size:10.583px;letter-spacing:0px;line-height:1.25;stroke-width:.26458;word-spacing:0px" xml:space="preserve"><tspan id="tspan1030" x="159.51558" y="76.501129" style="stroke-width:.26458"/></text>
  </g>
 </g>
</svg>
