<?xml version="1.0" encoding="UTF-8"?>
<svg id="git"  class="skillsvg" width="42.73mm" height="42.73mm" version="1.1" viewBox="0 0 102.73 102.73" xmlns="http://www.w3.org/2000/svg">
 <g id="layer1" transform="translate(-58.893 -53.725)">
  <g id="g1024">
   <path id="path1002" transform="scale(-1)" d="m-106.88-58.583a46.63 46.63 0 0 1-49.209-37.939 46.63 46.63 0 0 1 32.179-53.154 46.63 46.63 0 0 1 56.429 26.013 46.63 46.63 0 0 1-19.519 58.991" style="fill:none;stroke-linecap:round;stroke-linejoin:round;stroke-width:9;stroke:#f9f973"/>
   <path id="path815" d="m106.86 58.349a46.869 46.869 0 0 1 48.348 33.5 46.869 46.869 0 0 1-22.461 54.363 46.869 46.869 0 0 1-57.894-10.395 46.869 46.869 0 0 1-2.1448-58.781" style="fill:none;stroke-linecap:round;stroke-linejoin:round;stroke-width:9;stroke:#ff3061"/>
   <text id="text1018" x="97.320786" y="113.37075" style="fill:#000000;font-family:sans-serif;font-size:10.583px;letter-spacing:0px;line-height:1.25;stroke-width:.26458;word-spacing:0px" xml:space="preserve"><tspan id="tspan1016" x="97.320786" y="113.37075" style="fill:#414144;font-family:'Yu Gothic';font-size:19.403px;stroke-width:.26458">Git</tspan></text>
   <text id="text826" x="151.6107" y="98.779701" style="fill:#000000;font-family:sans-serif;font-size:10.583px;letter-spacing:0px;line-height:1.25;stroke-width:.26458;word-spacing:0px" xml:space="preserve"><tspan id="tspan824" x="151.6107" y="108.14347" style="stroke-width:.26458"/><tspan id="tspan828" x="151.6107" y="121.37263" style="stroke-width:.26458"/></text>
   <text id="text832" x="92.628014" y="116.62687" style="fill:#000000;font-family:sans-serif;font-size:10.583px;letter-spacing:0px;line-height:1.25;stroke-width:.26458;word-spacing:0px" xml:space="preserve"><tspan id="tspan830" x="92.628014" y="125.99064" style="stroke-width:.26458"/></text>
  </g>
 </g>
</svg>
