<svg id="svg8" width="102.73mm" height="102.73mm" version="1.1" viewBox="0 0 102.73 102.73" xmlns="http://www.w3.org/2000/svg">
 <g id="layer1" transform="translate(-58.893 -53.725)">
  <g id="g1024">
   <path id="path1002" transform="scale(-1)" d="m-106.88-58.583a46.63 46.63 0 0 1-49.209-37.939 46.63 46.63 0 0 1 32.179-53.154 46.63 46.63 0 0 1 56.429 26.013 46.63 46.63 0 0 1-19.519 58.991" style="fill:none;stroke-linecap:round;stroke-linejoin:round;stroke-width:9;stroke:#f9f973"/>
   <path id="path815" d="m106.86 58.349a46.869 46.869 0 0 1 48.348 33.5 46.869 46.869 0 0 1-22.461 54.363 46.869 46.869 0 0 1-57.894-10.395 46.869 46.869 0 0 1-2.1448-58.781" style="fill:none;stroke-linecap:round;stroke-linejoin:round;stroke-width:9;stroke:#ff3061"/>
   <text id="text1018" x="70.339012" y="110.21351" style="fill:#000000;font-family:sans-serif;font-size:10.583px;letter-spacing:0px;line-height:1.25;stroke-width:.26458;word-spacing:0px" xml:space="preserve"><tspan id="tspan1016" x="70.339012" y="110.21351" style="fill:#414144;font-family:'Yu Gothic';font-size:16.933px;stroke-width:.26458">JavaScript</tspan></text>
  </g>
 </g>
</svg>
